<svg width="20" height="20" version="1.1" viewBox="0 0 48 48" xmlns="http://www.w3.org/2000/svg">
 <path d="m22.02 8.0203-14 14a2.8002 2.8002 0 0 0 0 3.9602l14 14a2.7999 2.7999 0 0 0 3.9602 0 2.7999 2.7999 0 0 0 0-3.9602l-12.02-12.02 12.02-12.02a2.7999 2.7999 0 0 0 0-3.9602 2.7999 2.7999 0 0 0-3.9602 0z" stop-color="#000000" stroke-linecap="round" stroke-linejoin="round" stroke-width="1.1666"/>
 <path d="m36.019 8.0203-14 14a2.8002 2.8002 0 0 0 0 3.9602l14 14a2.7999 2.7999 0 0 0 3.9602 0 2.7999 2.7999 0 0 0 0-3.9602l-12.02-12.02 12.02-12.02a2.7999 2.7999 0 0 0 0-3.9602 2.7999 2.7999 0 0 0-3.9602 0z" stop-color="#000000" stroke-linecap="round" stroke-linejoin="round" stroke-width="1.1666"/>
</svg>
